Patient4_TMGait_0pt6_02_left_13_GRF.mot
version=1
nRows=58
nColumns=19
inDegrees=no
endheader
time	F1x	F1y	F1z	M1x	M1y	M1z	F2x	F2y	F2z	M2x	M2y	M2z	EC1x	EC1y	EC1z	EC2x	EC2y	EC2z
15.98	-19.572	-8.5574	1.3468	0.14594	-4.3042	-6.604	-31.5471	751.7481	-40.1598	311.5996	58.9838	759.8795	-0.0592	0.0182	-0.0073	-0.0462	0.0165	0.9585
15.9922	-13.2224	-4.6919	0.95895	-0.26736	-2.8837	-3.3148	-31.8502	758.0892	-42.8682	314.0681	60.1253	763.9497	-0.0592	0.0182	-0.0073	-0.0462	0.0165	0.9585
16.0044	-7.8645	-1.4495	0.62146	-0.61682	-1.7188	-0.57556	-31.8841	764.5838	-45.2571	316.455	60.9814	767.7794	-0.0592	0.0182	-0.0073	-0.0462	0.0165	0.9585
16.0166	-3.7809	0.99998	0.36418	-0.88712	-0.86044	1.4718	-31.5721	770.5791	-47.2078	318.4873	61.4943	770.7964	-0.0592	0.0182	-0.0073	-0.0462	0.0165	0.9585
16.0289	-0.96907	2.7049	0.18406	-1.0878	-0.29192	2.8924	-30.8487	775.4714	-48.7151	319.9351	61.6558	772.4434	-0.0592	0.0182	-0.0073	-0.0462	0.0165	0.9585
16.0411	0.7618	3.7675	0.086507	-1.2256	0.023664	3.7622	-29.7082	778.8049	-49.8361	320.6354	61.4938	772.3209	-0.0592	0.0182	-0.0073	-0.0462	0.0165	0.9585
16.0533	1.6377	4.3385	0.049974	-1.3132	0.14355	4.2174	-28.1071	780.2914	-50.6208	320.4974	61.0004	770.1637	-0.0592	0.0182	-0.0073	-0.0462	0.0165	0.9585
16.0655	1.9245	4.534	0.067236	-1.3504	0.11712	4.3498	-26.0503	779.836	-51.1332	319.5061	60.1894	765.9074	-0.0592	0.0182	-0.0073	-0.0462	0.0165	0.9585
16.0777	1.8214	4.4342	0.10544	-1.331	0.00626	4.2259	-23.5322	777.5065	-51.4224	317.7139	59.0681	759.6353	-0.0592	0.0182	-0.0073	-0.0462	0.0165	0.9585
16.0899	1.495	4.0605	0.1584	-1.235	-0.15725	3.8519	-20.583	773.5647	-51.5623	315.2443	57.6891	751.636	-0.0592	0.0182	-0.0073	-0.0462	0.0165	0.9585
16.1021	1.0717	3.3975	0.20184	-1.0367	-0.32915	3.193	-17.2566	768.3758	-51.5993	312.2677	56.0909	742.2869	-0.0592	0.0182	-0.0073	-0.0462	0.0165	0.9585
16.1144	0.63405	2.401	0.23258	-0.70435	-0.48763	2.1829	-13.6363	762.4152	-51.5916	308.9921	54.3412	732.088	-0.0592	0.0182	-0.0073	-0.0462	0.0165	0.9585
16.1266	0.26463	1.0119	0.24336	-0.20919	-0.59941	0.73046	-9.831	756.1456	-51.5689	305.6163	52.4948	721.5337	-0.0592	0.0182	-0.0073	-0.0462	0.0165	0.9585
16.1388	0.02946	-0.79407	0.23017	0.45963	-0.63107	-1.2025	-5.9815	749.856	-51.5795	302.2673	50.6395	710.9546	-0.0592	0.0182	-0.0073	-0.0462	0.0165	0.9585
16.151	0.027252	-2.9724	0.18424	1.2806	-0.54043	-3.5938	-2.2282	743.6628	-51.6533	298.9951	48.852	700.5205	-0.0592	0.0182	-0.0073	-0.0462	0.0165	0.9585
16.1632	0.34355	-5.321	0.089081	2.1739	-0.27571	-6.2071	1.3287	737.5315	-51.836	295.7909	47.2115	690.2376	-0.0592	0.0182	-0.0073	-0.0462	0.0165	0.9585
16.1754	1.1284	-7.4248	-0.069099	2.9752	0.23264	-8.5781	4.6304	731.3928	-52.1744	292.6303	45.7801	680.0665	-0.0592	0.0182	-0.0073	-0.0462	0.0165	0.9585
16.1876	2.4892	-8.5415	-0.30494	3.3974	1.0437	-9.8541	7.7127	725.1941	-52.7221	289.4969	44.5905	669.9442	-0.0592	0.0182	-0.0073	-0.0462	0.0165	0.9585
16.1999	4.5498	-7.5485	-0.62597	3.0045	2.2096	-8.7938	10.646	718.9183	-53.5025	286.3933	43.6396	659.8335	-0.0592	0.0182	-0.0073	-0.0462	0.0165	0.9585
16.2121	7.3231	-2.875	-1.0257	1.1936	3.727	-3.6248	13.544	712.5462	-54.4863	283.3279	42.8794	649.6875	-0.0592	0.0182	-0.0073	-0.0462	0.0165	0.9585
16.2243	10.7001	7.4087	-1.4686	-2.7805	5.5079	7.8058	16.5004	706.013	-55.5853	280.2937	42.2248	639.4463	-0.0592	0.0182	-0.0073	-0.0462	0.0165	0.9585
16.2365	14.2848	25.4484	-1.877	-9.7398	7.3128	27.9204	19.5672	699.0944	-56.6281	277.225	41.5355	628.9366	-0.0592	0.0182	-0.0073	-0.0462	0.0165	0.9585
16.2487	17.3503	53.1897	-2.1213	-20.4246	8.7126	58.9043	22.7346	691.2941	-57.3836	273.9469	40.6378	617.7826	-0.0592	0.0182	-0.0073	-0.0462	0.0165	0.9585
16.2609	18.6694	91.7472	-1.9993	-35.2507	9.0131	102.0363	25.9279	681.7873	-57.5669	270.1457	39.3274	605.35	-0.0592	0.0182	-0.0073	-0.0462	0.0165	0.9585
16.2731	16.7345	140.6458	-1.261	-54.0212	7.3652	156.8147	29.0287	669.4179	-56.9194	265.3655	37.4326	590.7196	-0.0592	0.0182	-0.0073	-0.0462	0.0165	0.9585
16.2854	10.7536	197.52	0.38664	-75.8028	3.1509	220.6141	31.8781	652.8477	-55.2619	259.0609	34.8574	572.8246	-0.0592	0.0182	-0.0073	-0.0462	0.0165	0.9585
16.2976	1.6792	257.9973	3.2963	-98.8712	-3.6585	288.4472	34.305	630.7783	-52.5459	250.6872	31.6223	550.617	-0.0592	0.0182	-0.0073	-0.0462	0.0165	0.9585
16.3098	-8.5331	315.6821	8.0089	-120.7611	-12.8554	352.8668	36.0974	602.1688	-48.903	239.7896	27.9117	523.2576	-0.0592	0.0182	-0.0073	-0.0462	0.0165	0.9585
16.322	-18.208	366.0901	14.3299	-139.7761	-23.5144	408.5232	37.0891	566.5061	-44.6231	226.1118	24.028	490.3305	-0.0592	0.0182	-0.0073	-0.0462	0.0165	0.9585
16.3342	-26.4937	408.934	21.0833	-155.8662	-33.9995	454.876	37.1328	524.0044	-40.0862	209.672	20.3278	452.0383	-0.0592	0.0182	-0.0073	-0.0462	0.0165	0.9585
16.3464	-32.9367	446.3437	27.4073	-169.8989	-43.1611	494.2462	36.2008	475.3956	-35.7101	190.7039	17.1484	408.9725	-0.0592	0.0182	-0.0073	-0.0462	0.0165	0.9585
16.3586	-37.4018	480.7643	32.5255	-182.855	-50.1169	529.3872	34.2871	421.8124	-31.7364	169.6177	14.6565	362.0736	-0.0592	0.0182	-0.0073	-0.0462	0.0165	0.9585
16.3709	-39.9674	514.0697	36.337	-195.4403	-54.7845	562.4269	31.417	364.682	-28.2059	146.9689	12.855	312.505	-0.0592	0.0182	-0.0073	-0.0462	0.0165	0.9585
16.3831	-40.7777	547.3333	38.9409	-208.0215	-57.3713	594.5959	27.5981	305.8191	-24.9919	123.4855	11.6314	261.7912	-0.0592	0.0182	-0.0073	-0.0462	0.0165	0.9585
16.3953	-40.1294	581.0133	40.889	-220.69	-58.6146	626.5614	22.9668	247.3907	-21.9652	100.0543	10.8329	211.7149	-0.0592	0.0182	-0.0073	-0.0462	0.0165	0.9585
16.4075	-38.3471	615.1566	42.7308	-233.3722	-59.2711	658.4859	17.7943	191.8477	-19.0295	77.6821	10.2763	164.2907	-0.0592	0.0182	-0.0073	-0.0462	0.0165	0.9585
16.4197	-35.8159	649.3905	44.9993	-245.8436	-60.082	690.1588	12.5728	141.5428	-16.1521	57.3485	9.7517	121.4363	-0.0592	0.0182	-0.0073	-0.0462	0.0165	0.9585
16.4319	-32.8451	682.8966	47.9991	-257.7485	-61.5201	720.8257	7.8679	98.3344	-13.3091	39.8352	9.0278	84.6693	-0.0592	0.0182	-0.0073	-0.0462	0.0165	0.9585
16.4441	-29.826	714.5178	51.8579	-268.6358	-63.8694	749.3872	4.0876	63.2414	-10.5054	25.5848	7.9649	54.8105	-0.0592	0.0182	-0.0073	-0.0462	0.0165	0.9585
16.4564	-26.9452	742.9544	56.3593	-278.0586	-66.9804	774.5395	1.359	36.4439	-7.7624	14.6954	6.5447	31.9931	-0.0592	0.0182	-0.0073	-0.0462	0.0165	0.9585
16.4686	-24.2623	767.1377	61.0105	-285.6888	-70.3613	795.2387	-0.38771	17.4549	-5.2096	6.9779	4.9158	15.8073	-0.0592	0.0182	-0.0073	-0.0462	0.0165	0.9585
16.4808	-21.7059	786.166	65.2466	-291.2927	-73.3928	810.5496	-1.3282	5.2191	-3.0235	2.0092	3.3059	5.3543	-0.0592	0.0182	-0.0073	-0.0462	0.0165	0.9585
16.493	-19.1935	799.3729	68.5562	-294.7236	-75.5136	819.8056	-1.7151	-1.6702	-1.3766	-0.78525	1.9609	-0.54398	-0.0592	0.0182	-0.0073	-0.0462	0.0165	0.9585
16.5052	-16.6327	806.3542	70.7439	-295.9122	-76.4803	822.6125	-1.7311	-4.7227	-0.24786	-2.0176	0.93367	-3.1872	-0.0592	0.0182	-0.0073	-0.0462	0.0165	0.9585
16.5174	-14.0069	807.132	71.7565	-294.9277	-76.2215	819.0229	-1.572	-5.2884	0.44067	-2.2384	0.22748	-3.7164	-0.0592	0.0182	-0.0073	-0.0462	0.0165	0.9585
16.5296	-11.3155	802.2617	71.7749	-292.0119	-74.9108	809.6496	-1.3225	-4.4625	0.78198	-1.8886	-0.19996	-3.0851	-0.0592	0.0182	-0.0073	-0.0462	0.0165	0.9585
16.5419	-8.572	792.8529	70.9257	-287.5946	-72.6866	795.6659	-1.0793	-3.0072	0.89169	-1.2803	-0.41349	-1.9168	-0.0592	0.0182	-0.0073	-0.0462	0.0165	0.9585
16.5541	-5.8383	780.4102	69.3967	-282.2358	-69.7635	778.6434	-0.85627	-1.4454	0.84352	-0.62261	-0.4627	-0.66623	-0.0592	0.0182	-0.0073	-0.0462	0.0165	0.9585
16.5663	-3.1562	766.6564	67.2714	-276.5655	-66.2565	760.3451	-0.688	-0.026507	0.72161	-0.022714	-0.40801	0.48287	-0.0592	0.0182	-0.0073	-0.0462	0.0165	0.9585
16.5785	-0.56691	753.2196	64.7462	-271.1666	-62.3839	742.4451	-0.55778	1.1014	0.5583	0.46096	-0.28589	1.3968	-0.0592	0.0182	-0.0073	-0.0462	0.0165	0.9585
16.5907	1.913	741.4483	61.9737	-266.5126	-58.3127	726.2762	-0.48292	1.9326	0.40624	0.82008	-0.15047	2.0857	-0.0592	0.0182	-0.0073	-0.0462	0.0165	0.9585
16.6029	4.2675	732.2988	59.1831	-262.9224	-54.2794	712.7871	-0.43381	2.4866	0.27024	1.0611	-0.020423	2.5546	-0.0592	0.0182	-0.0073	-0.0462	0.0165	0.9585
16.6151	6.5213	726.2495	56.5168	-260.5431	-50.4255	702.4339	-0.4178	2.8334	0.17826	1.2095	0.076777	2.8742	-0.0592	0.0182	-0.0073	-0.0462	0.0165	0.9585
16.6274	8.6706	723.3234	54.1253	-259.3567	-46.9047	695.2259	-0.41302	3.0399	0.11621	1.2915	0.14697	3.0948	-0.0592	0.0182	-0.0073	-0.0462	0.0165	0.9585
16.6396	10.7412	723.1382	52.053	-259.208	-43.7608	690.7668	-0.41834	3.1719	0.094682	1.3344	0.17877	3.2723	-0.0592	0.0182	-0.0073	-0.0462	0.0165	0.9585
16.6518	12.7701	725.053	50.332	-259.8532	-41.0175	688.4215	-0.42594	3.2682	0.097019	1.356	0.18559	3.4324	-0.0592	0.0182	-0.0073	-0.0462	0.0165	0.9585
16.664	14.7888	728.3487	48.9303	-261.0304	-38.632	687.4621	-0.42898	3.3575	0.12488	1.3703	0.16412	3.5887	-0.0592	0.0182	-0.0073	-0.0462	0.0165	0.9585
16.6762	16.8166	732.3662	47.8124	-262.5063	-36.5581	687.2315	-0.44324	3.4496	0.15917	1.3838	0.1375	3.7487	-0.0592	0.0182	-0.0073	-0.0462	0.0165	0.9585
